<?xml version="1.0" encoding="UTF-8"?>
<svg id="Calque_2" data-name="Calque 2" xmlns="http://www.w3.org/2000/svg" xmlns:xlink="http://www.w3.org/1999/xlink" viewBox="0 0 755.94 189.43">
  <defs>
    <style>
      .cls-1 {
        fill: url(#Dégradé_sans_nom_3);
      }

      .cls-1, .cls-2 {
        stroke-width: 0px;
      }

      .cls-2 {
        fill: #03045e;
      }
    </style>
    <linearGradient id="Dégradé_sans_nom_3" data-name="Dégradé sans nom 3" x1="610.3" y1="5.15" x2="400.07" y2="206.49" gradientUnits="userSpaceOnUse">
      <stop offset="0" stop-color="#72f5cf"/>
      <stop offset=".37" stop-color="#4797a3"/>
      <stop offset=".8" stop-color="#162e71"/>
      <stop offset="1" stop-color="#03045e"/>
    </linearGradient>
  </defs>
  <path class="cls-2" d="M657.03,189.43H0c167.75-33.43,263.1-83.06,320.66-126.11C343.71,46.08,400.9-.16,461.29,13.11c6.22,1.37,12.82,3.99,20.29,7.98,18.58,9.94,42.52,28.33,79.37,56.84,21.04,16.28,62.63,48.47,94.39,73.08.57,12.81,1.13,25.62,1.69,38.42Z"/>
  <path class="cls-1" d="M755.94,99.78v89.65H79.84c166.92-26.96,266.75-75.91,329.48-120.9,18.69-13.41,43.31-32.73,72.26-47.44,29.66-15.07,63.86-25.3,100.88-19.39,33.9,5.42,67.1,26.98,132.13,69.87,14.77,9.74,28.58,19.2,41.35,28.21Z"/>
</svg>