<?xml version="1.0" encoding="UTF-8"?>
<svg id="Calque_2" data-name="Calque 2" xmlns="http://www.w3.org/2000/svg" xmlns:xlink="http://www.w3.org/1999/xlink" viewBox="0 0 964.6 333.43">
  <defs>
    <style>
      .cls-1 {
        fill: url(#Dégradé_sans_nom_7);
        stroke-width: 0px;
      }

      .cls-2 {
        fill: #fff;
        stroke: #03045e;
        stroke-miterlimit: 10;
      }
    </style>
    <linearGradient id="Dégradé_sans_nom_7" data-name="Dégradé sans nom 7" x1="325.34" y1="97.67" x2="964.6" y2="97.67" gradientUnits="userSpaceOnUse">
      <stop offset=".14" stop-color="#72f5cf"/>
      <stop offset=".52" stop-color="#428c9e"/>
      <stop offset="1" stop-color="#03045e"/>
    </linearGradient>
  </defs>
  <path class="cls-1" d="M964.6.5c-120.97,11.95-253.01,41.78-347.9,110.59-10.57,7.66-30.77,23.13-59.09,38.81-35.25,19.51-80.61,44.34-140.06,44.93-19.43.19-51.7-2.1-90.32-18.11-.63-.25-1.26-.51-1.89-.78,6.59-.23,16.12-.65,27.58-1.53,32.08-2.47,82.83-6.37,126.65-24.51,35.7-14.79,56.87-35.84,66.62-42.9C631.72,44.99,747.42,14.64,858,.5h106.6Z"/>
  <path class="cls-2" d="M877.17.5c-82.45,9.03-225.84,31.72-328.98,106.5-10.8,7.83-32.1,26.4-66.62,42.9-59.7,28.54-107.46,27.97-154.34,26.82-24.44-.6-48.65-1.36-74.19,1.77C112.27,195.72,50.06,316.44.5,332.74V.5h876.67Z"/>
</svg>