<?xml version="1.0" encoding="UTF-8"?>
<svg id="Calque_2" data-name="Calque 2" xmlns="http://www.w3.org/2000/svg" viewBox="0 0 656.65 212.74">
  <defs>
    <style>
      .cls-1 {
        fill: #fff;
        stroke: #03045e;
        stroke-miterlimit: 10;
      }

      .cls-2 {
        fill: #72f5cf;
        stroke-width: 0px;
      }
    </style>
  </defs>
  <path class="cls-2" d="M656.65,7.18v15.34c-31.45,2.74-76.39,7.74-115.64,25.44-3.13,1.41-6.15,2.88-9.06,4.38-.01.01-.02.01-.03.02-16.77,8.67-29.81,18.62-39.54,26.85-.01,0-.03.02-.04.03-.05.04-.09.08-.14.12-7.33,6.22-12.78,11.44-16.51,14.39-95.52,75.38-229.42,106.92-350.55,118.99H0c134.06-7.58,296.01-36.11,406.55-123.36,10.37-8.17,30.17-24.68,57.94-41.42C499.05,27.13,543.53.64,601.82.01c13.05-.14,32.01.96,54.83,7.17Z"/>
  <path class="cls-1" d="M656.65,17.51v195.23H100.77c51.14-6.33,244.77-17.06,373.94-118.99,4.17-3.3,9.95-8.38,17.49-14.39.05-.04.09-.08.14-.12.01,0,.03-.02.04-.03,9.97-7.96,23.03-17.55,39.54-26.85.01-.01.02-.01.03-.02,2.61-1.47,5.3-2.94,8.08-4.38,43.15-22.45,81.26-29.02,116.62-30.45Z"/>
</svg>